<svg width="current" height="current" viewBox="0 0 334 240" fill="none" xmlns="http://www.w3.org/2000/svg">
<rect x="1" y="1" width="332" height="238" rx="19" fill="#F8F8FA"/>
<rect x="1" y="1" width="332" height="238" rx="19" stroke="#F0F1F6" stroke-width="2"/>
<path fill-rule="evenodd" clip-rule="evenodd" d="M144.389 113C143.77 112.843 143.068 112.764 142.284 112.764C141.332 112.764 140.497 112.884 139.776 113.124C139.065 113.364 138.447 113.678 137.92 114.066C137.394 114.445 136.955 114.874 136.604 115.354C136.263 115.835 135.981 116.319 135.76 116.809C135.593 117.169 135.464 117.561 135.372 117.986C135.279 118.411 135.219 118.854 135.192 119.316C135.164 119.768 135.169 120.23 135.205 120.701C135.242 121.172 135.312 121.629 135.413 122.072C135.626 123.023 135.99 123.864 136.508 124.593C137.025 125.314 137.726 125.9 138.613 126.352C139.536 126.833 140.478 127.114 141.439 127.197C142.408 127.29 143.396 127.216 144.403 126.976C146.868 126.394 148.48 124.889 149.237 122.46C149.514 121.537 149.62 120.632 149.555 119.745C149.5 118.85 149.311 117.954 148.988 117.058C148.914 116.873 148.808 116.643 148.669 116.366C148.53 116.079 148.346 115.775 148.115 115.451C147.884 115.128 147.598 114.81 147.256 114.496C146.914 114.172 146.504 113.882 146.023 113.623C145.552 113.364 145.008 113.157 144.389 113ZM141.619 117.889C141.85 117.778 142.094 117.723 142.353 117.723C142.602 117.723 142.838 117.778 143.059 117.889C143.281 118 143.475 118.162 143.641 118.374C143.807 118.577 143.936 118.836 144.029 119.15C144.121 119.454 144.153 119.801 144.126 120.189C144.107 120.576 144.038 120.909 143.918 121.186C143.807 121.454 143.669 121.675 143.502 121.851C143.345 122.017 143.17 122.142 142.976 122.225C142.782 122.308 142.593 122.354 142.408 122.363C142.224 122.382 142.025 122.359 141.813 122.294C141.609 122.22 141.416 122.1 141.231 121.934C141.046 121.758 140.889 121.537 140.76 121.269C140.631 120.992 140.552 120.65 140.524 120.244C140.497 119.828 140.529 119.464 140.621 119.15C140.714 118.836 140.843 118.573 141.009 118.36C141.185 118.148 141.388 117.991 141.619 117.889ZM183.552 113C182.933 112.843 182.232 112.764 181.447 112.764C180.495 112.764 179.66 112.884 178.94 113.124C178.228 113.364 177.61 113.678 177.083 114.066C176.557 114.445 176.118 114.874 175.768 115.354C175.426 115.835 175.144 116.319 174.923 116.809C174.756 117.169 174.627 117.561 174.535 117.986C174.442 118.411 174.382 118.854 174.355 119.316C174.327 119.768 174.332 120.23 174.369 120.701C174.406 121.172 174.475 121.629 174.576 122.072C174.789 123.023 175.153 123.864 175.671 124.593C176.188 125.314 176.89 125.9 177.776 126.352C178.699 126.833 179.641 127.114 180.602 127.197C181.571 127.29 182.559 127.216 183.566 126.976C186.031 126.394 187.643 124.889 188.4 122.46C188.677 121.537 188.783 120.632 188.719 119.745C188.663 118.85 188.474 117.954 188.151 117.058C188.077 116.873 187.971 116.643 187.832 116.366C187.694 116.079 187.509 115.775 187.278 115.451C187.047 115.128 186.761 114.81 186.419 114.496C186.078 114.172 185.667 113.882 185.186 113.623C184.716 113.364 184.171 113.157 183.552 113ZM180.782 117.889C181.013 117.778 181.257 117.723 181.516 117.723C181.765 117.723 182.001 117.778 182.222 117.889C182.444 118 182.638 118.162 182.804 118.374C182.97 118.577 183.1 118.836 183.192 119.15C183.284 119.454 183.317 119.801 183.289 120.189C183.27 120.576 183.201 120.909 183.081 121.186C182.97 121.454 182.832 121.675 182.666 121.851C182.509 122.017 182.333 122.142 182.139 122.225C181.945 122.308 181.756 122.354 181.571 122.363C181.387 122.382 181.188 122.359 180.976 122.294C180.773 122.22 180.579 122.1 180.394 121.934C180.209 121.758 180.052 121.537 179.923 121.269C179.794 120.992 179.715 120.65 179.687 120.244C179.66 119.828 179.692 119.464 179.784 119.15C179.877 118.836 180.006 118.573 180.172 118.36C180.348 118.148 180.551 117.991 180.782 117.889ZM196.775 125.892H192.498C191.349 125.892 190.417 124.961 190.417 123.812C190.417 122.775 191.175 121.916 192.167 121.757V117.38C191.175 117.221 190.417 116.362 190.417 115.325C190.417 114.176 191.349 113.244 192.498 113.244H196.775C197.924 113.244 198.855 114.176 198.855 115.325C198.855 116.362 198.098 117.221 197.106 117.38V121.757C198.098 121.916 198.855 122.775 198.855 123.812C198.855 124.961 197.924 125.892 196.775 125.892ZM127.027 120.494L125.727 122.815C125.189 123.776 124.174 124.371 123.073 124.371C121.972 124.371 120.957 123.776 120.42 122.815L119.12 120.494L117.678 124.327C117.324 125.269 116.423 125.892 115.417 125.892C113.78 125.892 112.617 124.297 113.117 122.738L115.408 115.607C115.86 114.199 117.17 113.244 118.648 113.244C119.989 113.244 121.205 114.032 121.753 115.255L123.073 118.198L124.394 115.255C124.942 114.032 126.158 113.244 127.499 113.244C128.977 113.244 130.287 114.199 130.739 115.607L133.029 122.738C133.53 124.297 132.367 125.892 130.73 125.892C129.724 125.892 128.823 125.269 128.469 124.327L127.027 120.494ZM164.727 122.815L166.027 120.494L167.469 124.327C167.823 125.269 168.724 125.892 169.73 125.892C171.367 125.892 172.53 124.297 172.029 122.738L169.739 115.607C169.287 114.199 167.977 113.244 166.499 113.244C165.158 113.244 163.942 114.032 163.394 115.255L162.073 118.198L160.753 115.255C160.205 114.032 158.989 113.244 157.648 113.244C156.17 113.244 154.86 114.199 154.408 115.607L152.117 122.738C151.617 124.297 152.78 125.892 154.417 125.892C155.423 125.892 156.324 125.269 156.678 124.327L158.12 120.494L159.42 122.815C159.957 123.776 160.972 124.371 162.073 124.371C163.174 124.371 164.189 123.776 164.727 122.815ZM214.471 120.494L213.171 122.815C212.633 123.776 211.618 124.371 210.517 124.371C209.416 124.371 208.401 123.776 207.863 122.815L206.563 120.494L205.122 124.327C204.767 125.269 203.867 125.892 202.861 125.892C201.223 125.892 200.06 124.297 200.561 122.738L202.851 115.607C203.304 114.199 204.613 113.244 206.092 113.244C207.432 113.244 208.648 114.032 209.197 115.255L210.517 118.198L211.837 115.255C212.386 114.032 213.601 113.244 214.942 113.244C216.421 113.244 217.73 114.199 218.182 115.607L220.473 122.738C220.974 124.297 219.811 125.892 218.173 125.892C217.167 125.892 216.266 125.269 215.912 124.327L214.471 120.494Z" fill="#E1E2E8"/>
</svg>
